# xmcd CD database file
#
# Track frame offsets:
#	150
#	30259
#	56983
#	77108
#	117556
#	152900
#	182907
#	213238
#
# Disc length: 3359 seconds
#
# Revision: 0
# Processed by: cddbd v1.5.2PL0 Copyright (c) Steve Scherf et al.
# Submitted via: CDex 1.51
#
DISCID=6b0d1d08
DTITLE=Moutin Reunion - Sharp Turns
DYEAR=2007
DGENRE=Jazz
TTITLE0=01 The Speech - 01 The Speech
TTITLE1=02 Kuki - s Dance
TTITLE2=03 Trane - s Medley
TTITLE3=04 A Good Move - 04 A Good Move
TTITLE4=05 Time Apart - 05 Time Apart
TTITLE5=06 Two Hits on the N - J.T
TTITLE6=07 A Blue Dream - 07 A Blue Dream
TTITLE7=08 Sharp Turns - 08 Sharp Turns
EXTD=YEAR: 2007
EXTT0=
EXTT1=
EXTT2=
EXTT3=
EXTT4=
EXTT5=
EXTT6=
EXTT7=
PLAYORDER=
